REM COMMENT "Declipped, equalized version by Forezd Hedzehog"
REM GENRE "Symphonic Metal, Folk Metal"
REM DATE 2011
REM COMMENT "Released: 30 Nov 2011"
REM LABEL "Nuclear Blast - NB 2789-5"
REM LABEL "Nuclear Blast - NB 2866-0"
REM FORMAT "CD, Album"
TITLE "Imaginaerum"
PERFORMER "Nightwish"
FILE "01. Taikatalvi.flac" WAVE
  TRACK 01 AUDIO
    PERFORMER "Nightwish"
    TITLE "Taikatalvi"
    INDEX 01 00:00:00
FILE "02. Storytime.flac" WAVE
  TRACK 02 AUDIO
    PERFORMER "Nightwish"
    TITLE "Storytime"
    INDEX 01 00:00:00
FILE "03. Ghost River.flac" WAVE
  TRACK 03 AUDIO
    PERFORMER "Nightwish"
    TITLE "Ghost River"
    INDEX 01 00:00:00
FILE "04. Slow, Love, Slow.flac" WAVE
  TRACK 04 AUDIO
    PERFORMER "Nightwish"
    TITLE "Slow, Love, Slow"
    INDEX 01 00:00:00
FILE "05. I Want My Tears Back.flac" WAVE
  TRACK 05 AUDIO
    PERFORMER "Nightwish"
    TITLE "I Want My Tears Back"
    INDEX 01 00:00:00
FILE "06. Scaretale.flac" WAVE
  TRACK 06 AUDIO
    PERFORMER "Nightwish"
    TITLE "Scaretale"
    INDEX 01 00:00:00
FILE "07. Arabesque.flac" WAVE
  TRACK 07 AUDIO
    PERFORMER "Nightwish"
    TITLE "Arabesque"
    INDEX 01 00:00:00
FILE "08. Turn Loose the Mermaids.flac" WAVE
  TRACK 08 AUDIO
    PERFORMER "Nightwish"
    TITLE "Turn Loose the Mermaids"
    INDEX 01 00:00:00
FILE "09. Rest Calm.flac" WAVE
  TRACK 09 AUDIO
    PERFORMER "Nightwish"
    TITLE "Rest Calm"
    INDEX 01 00:00:00
FILE "10. The Crow, the Owl and the Dove.flac" WAVE
  TRACK 10 AUDIO
    PERFORMER "Nightwish"
    TITLE "The Crow, the Owl and the Dove"
    INDEX 01 00:00:00
FILE "11. Last Ride of the Day.flac" WAVE
  TRACK 11 AUDIO
    PERFORMER "Nightwish"
    TITLE "Last Ride of the Day"
    INDEX 01 00:00:00
FILE "12. Song of Myself.flac" WAVE
  TRACK 12 AUDIO
    PERFORMER "Nightwish"
    TITLE "Song of Myself"
    INDEX 01 00:00:00
FILE "13. Imaginaerum.flac" WAVE
  TRACK 13 AUDIO
    PERFORMER "Nightwish"
    TITLE "Imaginaerum"
    INDEX 01 00:00:00
FILE "14. The Heart Asks Pleasure First (Theme from the Movie 'Piano') [Michael Nyman cover] [bonus track].flac" WAVE
  TRACK 14 AUDIO
    PERFORMER "Nightwish"
    TITLE "The Heart Asks Pleasure First (Theme from the Movie 'Piano') [Michael Nyman cover] [bonus track]"
    INDEX 01 00:00:00
